<?xml version="1.0" encoding="UTF-8"?>
<svg width="111px" height="111px" viewBox="0 0 111 111" version="1.1" xmlns="http://www.w3.org/2000/svg" xmlns:xlink="http://www.w3.org/1999/xlink">
    <!-- Generator: Sketch 62 (91390) - https://sketch.com -->
    <title>Footer Logo@2x</title>
    <desc>Created with Sketch.</desc>
    <defs>
        <polygon id="path-1" points="0 0.349122795 7.95840479 0.349122795 7.95840479 6.94660501 0 6.94660501"></polygon>
        <polygon id="path-3" points="0.131970816 0.28454884 5.28130269 0.28454884 5.28130269 7.76298918 0.131970816 7.76298918"></polygon>
        <polygon id="path-5" points="0.172634719 0.293476277 7.86320232 0.293476277 7.86320232 6.86882076 0.172634719 6.86882076"></polygon>
        <polygon id="path-7" points="0.344253284 0.260765864 12.4082913 0.260765864 12.4082913 9.91605423 0.344253284 9.91605423"></polygon>
    </defs>
    <g id="Symbols" stroke="none" stroke-width="1" fill="none" fill-rule="evenodd">
        <g id="Footer-Desktop" transform="translate(-100.000000, -28.000000)">
            <g id="Footer">
                <g id="Footer-Logo" transform="translate(100.500000, 27.671889)">
                    <path d="M55.0134109,89.2256805 C55.0134109,89.2256805 45.759222,85.0149646 40.1338778,82.3836641 C34.0261696,79.5279427 29.7028904,76.7978405 29.7028904,67.643512 L29.7028904,28.4019545 L80.3246371,28.4019545 L80.3246371,67.643512 C80.3246371,76.7978405 76.001005,79.5279427 69.8929439,82.3836641 C64.2683054,85.0149646 55.0134109,89.2256805 55.0134109,89.2256805" id="Fill-1" fill="#000000"></path>
                    <path d="M55.0134109,47.9848005 L29.7028904,63.5891144 L29.7028904,67.6431591 C29.7028904,69.3203176 29.8493286,70.7801125 30.1238561,72.0662986 L55.0134109,56.721339 L79.9036714,72.0666515 C80.1781989,70.7804653 80.3246371,69.3206705 80.3246371,67.6431591 L80.3246371,63.5894673 L55.0134109,47.9848005 Z" id="Fill-3" fill="#E31F27"></path>
                    <path d="M68.3537902,46.7613181 C68.0143358,46.7281489 67.5242089,46.4931421 66.9091685,46.4931421 C66.294128,46.4931421 65.8040011,46.7281489 65.4645468,46.7613181 C65.4394935,46.7627295 65.4133816,46.7655524 65.3897398,46.7655524 C65.8110584,47.3110788 66.2704862,47.8064987 66.9105799,47.8064987 C67.5510265,47.8064987 68.0072786,47.3110788 68.4285972,46.7655524 C68.4049553,46.7655524 68.3788435,46.7627295 68.3537902,46.7613181" id="Fill-5" fill="#FFC20E"></path>
                    <path d="M71.930658,38.8236263 C72.0227553,38.2167017 72.4176092,37.7632726 72.6250927,37.037786 C72.6684949,36.8860548 72.6716706,36.7346765 72.6250927,36.68704 C72.559813,36.6203489 72.423255,36.591767 72.2051856,36.6729255 C71.2249317,37.0381388 70.357947,37.0381388 69.6998572,36.6556352 C69.0452961,36.2752487 68.2425324,35.6108074 66.9090626,35.6108074 C65.5755928,35.6108074 64.7724763,36.2752487 64.118268,36.6556352 C63.4598254,37.0381388 62.5931935,37.0381388 61.6129397,36.6729255 C61.3945174,36.591767 61.2583122,36.6203489 61.1930325,36.68704 C61.1464546,36.7346765 61.1496304,36.8860548 61.1930325,37.037786 C61.4005161,37.7632726 61.7953699,38.2167017 61.8874672,38.8236263 C61.9686257,39.358214 61.872647,40.1493332 61.8444179,41.0357254 C61.8087787,41.7735622 61.8278333,42.5145748 62.0900106,43.2224183 C62.091775,43.2262998 62.0935393,43.2301813 62.0953036,43.2344157 C62.1073009,43.2711134 62.1182397,43.308164 62.1320014,43.3448618 C62.656356,44.5643568 63.8624422,45.8657161 65.2890679,45.8739196 C65.6454597,45.8759492 66.2774376,45.8417214 66.4242287,45.548845 C66.9732837,44.3889839 65.2386085,44.3469931 65.0194805,43.7746491 C64.8973898,43.4549551 65.0385351,42.9672983 65.3324701,42.8413261 C65.6197007,43.3900283 66.3603604,43.5601083 66.9090626,43.5544625 C67.4577648,43.5601083 68.1984245,43.3900283 68.4856551,42.8413261 C68.779943,42.9672983 68.9595503,43.4725983 68.7986448,43.7746491 C68.5103556,44.3155883 66.8448415,44.3889839 67.3938966,45.548845 C67.5403348,45.8417214 68.1726655,45.8759492 68.5290573,45.8739196 C69.955683,45.8657161 71.1617692,44.5643568 71.6861239,43.3448618 C71.6995327,43.308164 71.7108243,43.2711134 71.7228216,43.2344157 C71.724586,43.2301813 71.7263503,43.2262998 71.7281146,43.2224183 C71.9902919,42.5145748 72.0093465,41.7735622 71.9740602,41.0357254 C71.9631214,40.7033283 71.9430082,40.38434 71.9264237,40.0872293 C71.9236008,40.0378284 71.9207779,39.9887804 71.9183078,39.9404382 C71.9105448,39.7957643 71.9045462,39.6567362 71.9013704,39.5247654 C71.8967832,39.3486867 71.8978418,39.1849582 71.9080748,39.0356971 C71.9130149,38.961243 71.920425,38.8903175 71.930658,38.8236263 M65.3705793,42.1108994 C65.4224502,41.9072974 65.3832824,41.7372173 65.265779,41.6292412 C65.1659187,41.5378497 65.0304192,41.5015047 64.863515,41.518795 C63.5134606,41.6592346 62.9234734,40.7033283 63.0109835,39.5565231 C63.4961703,39.7438934 64.3846797,39.7227216 65.1609786,40.2622494 C65.8815251,40.7626093 65.7386156,41.7160455 65.3705793,42.1108994 M68.957786,41.518795 C68.7908818,41.5015047 68.6553823,41.5378497 68.555522,41.6292412 C68.4376658,41.7372173 68.3984979,41.9072974 68.4503688,42.1108994 C68.0826854,41.7160455 67.939423,40.7626093 68.6599695,40.2622494 C69.4366213,39.7227216 70.3247779,39.7438934 70.8099647,39.5565231 C70.8978276,40.7033283 70.3078404,41.6592346 68.957786,41.518795" id="Fill-7" fill="#FFC20E"></path>
                    <path d="M44.562769,46.7613181 C44.2233146,46.7281489 43.7331877,46.4931421 43.1181472,46.4931421 C42.5031068,46.4931421 42.0133327,46.7281489 41.6735255,46.7613181 C41.6484722,46.7627295 41.6223604,46.7655524 41.5987185,46.7655524 C42.0200371,47.3110788 42.479465,47.8064987 43.1199116,47.8064987 C43.7600053,47.8064987 44.2162574,47.3110788 44.6375759,46.7655524 C44.6139341,46.7655524 44.5878222,46.7627295 44.562769,46.7613181" id="Fill-9" fill="#FFC20E"></path>
                    <path d="M48.1398132,38.8236263 C48.2319105,38.2167017 48.6267644,37.7632726 48.8342479,37.037786 C48.8776501,36.8860548 48.8811787,36.7346765 48.8342479,36.68704 C48.7689682,36.6203489 48.632763,36.591767 48.4143408,36.6729255 C47.4344398,37.0381388 46.5674551,37.0381388 45.9090124,36.6556352 C45.2548042,36.2752487 44.4516876,35.6108074 43.1182178,35.6108074 C41.784748,35.6108074 40.9816315,36.2752487 40.3274232,36.6556352 C39.6693334,37.0381388 38.8023487,37.0381388 37.8220949,36.6729255 C37.6040255,36.591767 37.4674674,36.6203489 37.4021877,36.68704 C37.3556098,36.7346765 37.3591384,36.8860548 37.4021877,37.037786 C37.6096713,37.7632726 38.0045251,38.2167017 38.0966224,38.8236263 C38.1777809,39.358214 38.082155,40.1493332 38.0535731,41.0357254 C38.0179339,41.7735622 38.0369885,42.5145748 38.2991659,43.2224183 C38.3009302,43.2262998 38.3030473,43.2301813 38.3044588,43.2344157 C38.3164561,43.2711134 38.3277478,43.308164 38.3411566,43.3448618 C38.8655112,44.5643568 40.0715974,45.8657161 41.498576,45.8739196 C41.8546149,45.8759492 42.4865928,45.8417214 42.6333839,45.548845 C43.1824389,44.3889839 41.4477637,44.3469931 41.2289885,43.7746491 C41.106545,43.4549551 41.2476903,42.9672983 41.5419782,42.8413261 C41.8288559,43.3900283 42.5695156,43.5601083 43.1182178,43.5544625 C43.66692,43.5601083 44.4075797,43.3900283 44.6948103,42.8413261 C44.9890982,42.9672983 45.1687056,43.4725983 45.0078,43.7746491 C44.7195108,44.3155883 43.0539967,44.3889839 43.6034046,45.548845 C43.7498428,45.8417214 44.3818207,45.8759492 44.7382125,45.8739196 C46.1648382,45.8657161 47.3709244,44.5643568 47.8952791,43.3448618 C47.9086879,43.308164 47.9199795,43.2711134 47.9319768,43.2344157 C47.9337412,43.2301813 47.9358583,43.2262998 47.9372698,43.2224183 C48.1994471,42.5145748 48.2185017,41.7735622 48.1832154,41.0357254 C48.1726295,40.7033283 48.1521634,40.38434 48.1355789,40.0872293 C48.132756,40.0378284 48.1299331,39.9887804 48.127463,39.9404382 C48.1200529,39.7957643 48.1137014,39.6567362 48.1105256,39.5247654 C48.1059384,39.3486867 48.106997,39.1849582 48.11723,39.0356971 C48.1221701,38.961243 48.1299331,38.8903175 48.1398132,38.8236263 M41.5797345,42.1108994 C41.6319583,41.9072974 41.5924376,41.7372173 41.4749342,41.6292412 C41.3750739,41.5378497 41.2395744,41.5015047 41.0723173,41.518795 C39.7226158,41.6592346 39.1326286,40.7033283 39.2204915,39.5565231 C39.7053255,39.7438934 40.5938349,39.7227216 41.3704867,40.2622494 C42.0906803,40.7626093 41.9477708,41.7160455 41.5797345,42.1108994 M45.1669412,41.518795 C45.000037,41.5015047 44.8645375,41.5378497 44.7650301,41.6292412 C44.646821,41.7372173 44.6076532,41.9072974 44.6598769,42.1108994 C44.2918406,41.7160455 44.1489311,40.7626093 44.8691247,40.2622494 C45.6457765,39.7227216 46.5342859,39.7438934 47.0191199,39.5565231 C47.1069828,40.7033283 46.5169956,41.6592346 45.1669412,41.518795" id="Fill-11" fill="#FFC20E"></path>
                    <path d="M56.4557037,78.0402011 C56.1162493,78.0066791 55.6261224,77.7716722 55.011082,77.7716722 C54.3960415,77.7716722 53.9059146,78.0066791 53.5664602,78.0402011 C53.541407,78.0416125 53.5152951,78.0444354 53.4916533,78.0444354 C53.9129719,78.5899619 54.3723997,79.0853817 55.0124934,79.0853817 C55.6525872,79.0853817 56.1091921,78.5899619 56.5301578,78.0444354 C56.5068688,78.0444354 56.480757,78.0416125 56.4557037,78.0402011" id="Fill-13" fill="#FFC20E"></path>
                    <path d="M60.0327479,70.1025094 C60.1248452,69.4955848 60.5196991,69.0421556 60.7271826,68.3163161 C60.7705848,68.1649378 60.7737605,68.0135595 60.7271826,67.965923 C60.6619029,67.8995847 60.5253449,67.8702971 60.3072755,67.9518085 C59.3270217,68.3170218 58.4600369,68.3170218 57.8019471,67.9345182 C57.147386,67.5541317 56.3446224,66.8896904 55.0111525,66.8896904 C53.6776827,66.8896904 52.8745662,67.5541317 52.2203579,67.9345182 C51.5622682,68.3170218 50.6952834,68.3170218 49.7150296,67.9518085 C49.4966073,67.8702971 49.3600493,67.8995847 49.2951225,67.965923 C49.2485445,68.0135595 49.2517203,68.1649378 49.2951225,68.3163161 C49.502606,69.0421556 49.8974598,69.4955848 49.9895571,70.1025094 C50.0707156,70.637097 49.9747369,71.4282162 49.946155,72.3142556 C49.9108686,73.0524453 49.9299232,73.7934579 50.1921006,74.5013013 C50.1938649,74.5051828 50.1956292,74.5090643 50.1973935,74.5132987 C50.2093909,74.5499964 50.2203296,74.5870471 50.2340913,74.6237448 C50.7584459,75.8432399 51.9645321,77.1445991 53.3911578,77.1523621 C53.7475496,77.1548322 54.3795275,77.1206044 54.5259657,76.827728 C55.0753736,75.6678669 53.3406984,75.6258762 53.1215704,75.0535321 C52.9994797,74.7338381 53.1402721,74.2461813 53.43456,74.120562 C53.7217906,74.6689113 54.4624503,74.8389914 55.0111525,74.8333455 C55.5598547,74.8389914 56.3005145,74.6689113 56.5877451,74.120562 C56.8820329,74.2461813 57.0616403,74.7514813 56.9007347,75.0535321 C56.6124455,75.5941185 54.9469314,75.6678669 55.4959865,76.827728 C55.6427776,77.1206044 56.2744026,77.1548322 56.6311472,77.1523621 C58.0577729,77.1445991 59.2638592,75.8432399 59.7882138,74.6237448 C59.8016226,74.5870471 59.8129142,74.5499964 59.8249116,74.5132987 C59.8266759,74.5090643 59.8284402,74.5051828 59.8302045,74.5013013 C60.0923818,73.7934579 60.1114364,73.0524453 60.0761501,72.3142556 C60.0652114,71.9822113 60.0450982,71.663223 60.0285136,71.3661123 C60.0256907,71.3167114 60.0228678,71.2676635 60.0203977,71.2193212 C60.0126347,71.0746473 60.0066361,70.9356192 60.0031074,70.8036484 C59.9988731,70.6275697 59.9999317,70.4638412 60.0101647,70.3145801 C60.0151048,70.240126 60.0225149,70.1688476 60.0327479,70.1025094 M53.4726692,73.3897824 C53.5245401,73.1861804 53.4853723,73.0161003 53.3678689,72.9081242 C53.2680086,72.8167327 53.1325091,72.7803878 52.965252,72.7976781 C51.6155505,72.9381176 51.0252105,71.9822113 51.1130734,70.8354061 C51.5982602,71.0227764 52.4867696,71.0016047 53.2630685,71.5411324 C53.9836151,72.0414923 53.8407055,72.9949286 53.4726692,73.3897824 M57.0598759,72.7976781 C56.8929717,72.7803878 56.7574722,72.8167327 56.657612,72.9081242 C56.5397557,73.0161003 56.5005879,73.1861804 56.5524587,73.3897824 C56.1847754,72.9949286 56.0415129,72.0414923 56.7620595,71.5411324 C57.5387112,71.0016047 58.4268678,71.0227764 58.9120546,70.8354061 C58.9999175,71.9822113 58.4099303,72.9381176 57.0598759,72.7976781" id="Fill-15" fill="#FFC20E"></path>
                    <path d="M55.0134109,89.2287857 C55.0134109,89.2287857 45.7581634,85.0177169 40.1321135,82.3860636 C34.0236996,79.5299893 29.6997146,76.7998871 29.6997146,67.6445 L29.6997146,28.3994139 L80.32746,28.3994139 L80.32746,67.6445 C80.32746,76.7998871 76.0031222,79.5299893 69.8947083,82.3860636 C64.269364,85.0177169 55.0134109,89.2287857 55.0134109,89.2287857 Z" id="Stroke-17" stroke="#E31F27" stroke-width="2"></path>
                    <path d="M99.728652,33.9853786 C99.728652,34.9497536 100.510597,35.7316983 101.474972,35.7316983 C102.439347,35.7316983 103.221291,34.9497536 103.221291,33.9853786 C103.221291,33.0210036 102.439347,32.2390589 101.474972,32.2390589 C100.510597,32.2390589 99.728652,33.0210036 99.728652,33.9853786" id="Fill-19" fill="#E31F27"></path>
                    <path d="M6.84603901,33.9853786 C6.84603901,34.9497536 7.62798374,35.7316983 8.59235872,35.7316983 C9.55673369,35.7316983 10.3386784,34.9497536 10.3386784,33.9853786 C10.3386784,33.0210036 9.55673369,32.2390589 8.59235872,32.2390589 C7.62798374,32.2390589 6.84603901,33.0210036 6.84603901,33.9853786" id="Fill-21" fill="#E31F27"></path>
                    <polygon id="Fill-23" fill="#FFFFFF" points="2.28740005 40.7550581 3.37598285 41.0444058 3.12509715 41.9893733 8.11599347 43.3150802 8.36687917 42.3701127 9.45546197 42.6594604 8.5905944 45.9142701 7.50236446 45.6252752 7.7557202 44.6704275 2.76482388 43.3450735 2.51111528 44.2999212 1.42288534 44.0109263"></polygon>
                    <g id="Group-27" transform="translate(0.000000, 47.728622)">
                        <mask id="mask-2" fill="white">
                            <use xlink:href="#path-1"></use>
                        </mask>
                        <g id="Clip-26"></g>
                        <polygon id="Fill-25" fill="#FFFFFF" mask="url(#mask-2)" points="4.15595154 2.83821942 5.7639489 2.22882477 5.7667718 2.19741995 0.450535663 1.67059527 0.58144789 0.349122795 7.95840479 1.08025523 7.8070265 2.61238701 3.80344126 4.45821411 2.19544391 5.06690304 2.19226815 5.09901359 7.50850428 5.62513253 7.37829778 6.94660501 -7.05726289e-05 6.2161783 0.152366306 4.6833408"></polygon>
                    </g>
                    <path d="M1.07753818,58.009713 L2.06626072,58.8763448 C1.51508848,59.4338686 1.24938254,60.0845483 1.31254504,60.8470855 C1.38382339,61.704543 1.83337104,62.1145699 2.45829167,62.062699 C2.95547584,62.0214141 3.2430593,61.7634711 3.3168077,60.9783506 L3.36479709,60.2715657 C3.47418466,58.7591943 4.12345285,57.9807782 5.32989194,57.8805651 C6.65383446,57.7711775 7.59668478,58.7267309 7.73359568,60.3784833 C7.8253401,61.4896493 7.51305622,62.3467539 6.85284927,62.9984921 L5.87365405,62.1205686 C6.299207,61.7228918 6.56420722,61.1893628 6.49892754,60.4060066 C6.43364786,59.6120645 6.08149044,59.2256794 5.5313768,59.2715516 C4.96961867,59.3177766 4.76284087,59.6544081 4.69509114,60.3746018 L4.62522424,61.0732708 C4.48443185,62.5884651 3.87539006,63.3414751 2.65801221,63.4423939 C1.26032129,63.5588388 0.224315101,62.6322202 0.0775240329,60.8640229 C-0.0269234579,59.6046544 0.398276631,58.6942675 1.07753818,58.009713" id="Fill-28" fill="#FFFFFF"></path>
                    <polygon id="Fill-30" fill="#FFFFFF" points="7.80141598 68.8175229 1.81262269 70.3044882 1.4745798 68.9434951 7.46372595 67.4575884 6.95736734 65.4162751 8.16380643 65.1177529 9.51421368 70.5596083 8.30812745 70.8584834"></polygon>
                    <polygon id="Fill-32" fill="#FFFFFF" points="3.44196826 75.5405186 4.4860903 75.1170828 4.85412656 76.0228825 9.63930367 74.080018 9.27126741 73.1742183 10.3146837 72.7500768 11.5818153 75.8715042 10.5387518 76.2952928 10.1668341 75.3789072 5.38165696 77.3224775 5.75322186 78.2381573 4.70945267 78.6619459"></polygon>
                    <polygon id="Fill-34" fill="#FFFFFF" points="13.2301449 81.6436042 7.89661846 84.7555043 7.18983358 83.5441251 12.5230071 80.4318722 11.4623005 78.6149799 12.5360631 77.9875892 15.3642612 82.8345173 14.2901458 83.4604966"></polygon>
                    <path d="M17.7666946,86.0333629 L14.287464,88.9797702 C13.4035418,89.7281929 13.2182887,90.4141588 13.9049604,91.2250383 C14.5919849,92.0362707 15.2991226,91.9671095 16.1830448,91.2179811 L19.6626283,88.2715738 L20.5550192,89.3259289 L17.2130523,92.1555385 C15.5507141,93.5634624 14.295227,93.6107461 12.949407,92.0207447 C11.6028812,90.4310963 11.8699986,89.2165413 13.5326897,87.8086174 L16.8743037,84.9790078 L17.7666946,86.0333629 Z" id="Fill-36" fill="#FFFFFF"></path>
                    <polygon id="Fill-38" fill="#FFFFFF" points="24.30726 94.3539111 20.3622501 99.1034491 19.2828417 98.2071767 23.2278516 93.4576387 21.6096213 92.1132302 22.4035633 91.1559125 26.7197853 94.7417077 25.9258433 95.6983197"></polygon>
                    <polygon id="Fill-40" fill="#FFFFFF" points="25.1969691 102.652405 28.9373185 96.2489979 33.1575617 98.7140999 32.5308767 99.7878624 29.521307 98.0288396 28.6158602 99.580026 31.2760954 101.133682 30.6494105 102.207445 27.9884695 100.653436 27.0350333 102.286133 30.0435444 104.043745 29.4172124 105.117507"></polygon>
                    <path d="M40.2052267,105.580393 C40.7765121,103.13858 42.3305214,102.138213 44.2243379,102.581762 C46.1273289,103.026723 47.0659448,104.610725 46.4950123,107.052185 C45.9237268,109.49294 44.3799506,110.496483 42.4766068,110.051169 C40.5827903,109.60762 39.6335884,108.0215 40.2052267,105.580393 M44.9155968,107.271666 L45.1774213,106.154502 C45.4657105,104.923715 44.9748778,104.033794 43.9402831,103.791377 C42.9060412,103.549666 42.0722256,104.12942 41.7842893,105.360207 L41.5228177,106.477724 C41.2345285,107.709217 41.7246554,108.598432 42.7592501,108.83979 C43.7938449,109.082207 44.6280134,108.502806 44.9155968,107.271666" id="Fill-42" fill="#FFFFFF"></path>
                    <g id="Group-46" transform="translate(49.753703, 103.480999)">
                        <mask id="mask-4" fill="white">
                            <use xlink:href="#path-3"></use>
                        </mask>
                        <g id="Clip-45"></g>
                        <polygon id="Fill-44" fill="#FFFFFF" mask="url(#mask-4)" points="0.131970816 7.68973479 0.518003096 0.28454884 5.28130269 0.532964494 5.21672873 1.77433704 1.8535901 1.59896405 1.76008137 3.39150883 4.68813974 3.54465143 4.62391865 4.78602398 1.69515455 4.63288137 1.53177891 7.76313033"></polygon>
                    </g>
                    <polygon id="Fill-47" fill="#FFFFFF" points="66.8499933 103.707537 68.274149 109.71362 66.9096272 110.036843 65.4858244 104.030759 63.4385124 104.517005 63.1516347 103.307037 68.6104276 102.012382 68.8969524 103.221644"></polygon>
                    <polygon id="Fill-49" fill="#FFFFFF" points="74.0066578 107.988084 71.1502306 101.145362 75.6594687 99.2621316 76.1386569 100.40929 72.9226622 101.75264 73.6146268 103.408626 76.457998 102.221948 76.9361276 103.369106 74.0934621 104.555432 74.8224774 106.301046 78.0370606 104.958401 78.5162488 106.105559"></polygon>
                    <path d="M80.0611895,101.21717 C78.7224267,99.1095183 79.0262419,97.2679256 80.6765828,96.2192163 C81.7983347,95.5078442 82.8269308,95.5216059 83.8819916,96.2114533 L83.2097873,97.393192 C82.6766111,96.9507016 82.0428689,96.8250823 81.3431413,97.2689841 C80.4641592,97.8275665 80.3039593,98.8233463 80.9811037,99.8907573 L81.6077886,100.877363 C82.2909317,101.954301 83.2433093,102.205187 84.1226443,101.646957 C84.8311935,101.19741 84.997392,100.487449 84.845308,99.7912499 L86.1639575,99.747142 C86.3075728,100.964873 85.9102489,101.985 84.7895556,102.697078 C83.1381561,103.744376 81.3999522,103.326233 80.0611895,101.21717" id="Fill-51" fill="#FFFFFF"></path>
                    <polygon id="Fill-53" fill="#FFFFFF" points="91.4117029 93.2605294 89.1498502 95.3674752 91.2850251 97.6603799 90.2592519 98.6155805 85.2069574 93.1910154 86.2330834 92.235462 88.3029786 94.4581469 90.5644785 92.3519068 88.4945833 90.128869 89.5200036 89.1729627 94.5730039 94.5978807 93.5468778 95.553787"></polygon>
                    <polygon id="Fill-55" fill="#FFFFFF" points="95.8402413 87.1415649 94.1447339 86.8564515 94.1260321 86.8829162 98.4514285 90.0191638 97.6712481 91.093985 91.6693989 86.7410652 92.57414 85.4940469 96.9623461 85.9213641 98.6575006 86.2064776 98.6762024 86.1803657 94.3515117 83.0437652 95.1313392 81.9689441 101.132836 86.3222167 100.2288 87.569235"></polygon>
                    <path d="M100.002227,81.0061217 C97.730141,79.9471794 97.0688755,78.2213257 97.8906937,76.4591272 C98.7163935,74.6881071 100.458126,74.0935327 102.729506,75.1528278 C105.00265,76.2110644 105.667092,77.9277436 104.841745,79.6991166 C104.020985,81.4609623 102.274665,82.065064 100.002227,81.0061217 M102.621883,76.7421234 L101.581995,76.2579952 C100.435896,75.7237604 99.4655219,76.0215769 99.0170329,76.9848933 C98.5685438,77.9471511 98.9648091,78.8818855 100.110556,79.4154146 L101.150443,79.9002486 C102.295837,80.4344834 103.266917,80.1366669 103.7147,79.1744091 C104.163895,78.2110927 103.767277,77.2767111 102.621883,76.7421234" id="Fill-57" fill="#FFFFFF"></path>
                    <polygon id="Fill-59" fill="#FFFFFF" points="107.434407 72.745172 100.282577 70.77796 100.654847 69.4254356 106.608001 71.0627206 107.383242 68.2454612 108.581918 68.5753882"></polygon>
                    <path d="M105.559998,65.0180337 C103.067372,64.7533864 101.882105,63.3352294 102.087472,61.4029508 C102.293896,59.4586749 103.748751,58.3309243 106.241729,58.5955716 C108.734002,58.8605719 109.919975,60.2677901 109.714256,62.2117131 C109.508536,64.1446975 108.052976,65.2826811 105.559998,65.0180337 M106.654579,60.1354664 L105.513773,60.0137286 C104.257227,59.8806992 103.435409,60.4773908 103.322845,61.5335102 C103.211341,62.5899824 103.889544,63.3454624 105.146442,63.4791976 L106.287249,63.5995239 C107.544147,63.7329062 108.365965,63.1365675 108.47747,62.0804481 C108.590034,61.0246815 107.911831,60.2688487 106.654579,60.1354664" id="Fill-61" fill="#FFFFFF"></path>
                    <g id="Group-65" transform="translate(101.977449, 48.434348)">
                        <mask id="mask-6" fill="white">
                            <use xlink:href="#path-5"></use>
                        </mask>
                        <g id="Clip-64"></g>
                        <path d="M6.41046475,1.59836419 L6.41399338,1.64070776 C7.14477295,1.70563458 7.75522619,2.35631422 7.85085211,3.46783313 C8.00081894,5.20462552 6.79049836,6.63054549 4.31445767,6.84438056 C1.83700553,7.05821562 0.357803229,5.85212939 0.187723193,3.88315305 C0.0751598498,2.57085501 0.595985851,1.56695937 1.63022773,0.944155916 L2.39417644,2.01897705 C1.78231174,2.3383182 1.35076012,2.89831201 1.42627283,3.77694124 C1.52013443,4.86728836 2.27032147,5.5274953 3.57273934,5.41528482 L4.75800664,5.31295451 C6.04913289,5.20144976 6.68605086,4.42162221 6.59007209,3.3101033 C6.51491224,2.44205997 6.03043114,1.76914995 5.19449835,1.84148689 L4.71813311,1.88277188 L4.8426938,3.33303941 L3.66801239,3.43466399 L3.42735972,0.639635022 L7.44929385,0.293476277 L7.55338847,1.49920964 L6.41046475,1.59836419 Z" id="Fill-63" fill="#FFFFFF" mask="url(#mask-6)"></path>
                    </g>
                    <polygon id="Fill-66" fill="#FFFFFF" points="108.236465 43.0776386 105.422734 43.8232384 101.719435 47.431264 101.316113 45.9114825 103.907187 43.4548493 103.902247 43.4350889 100.445599 42.6245623 100.053568 41.1464186 105.050463 42.4597752 107.87478 41.7117053"></polygon>
                    <polygon id="Fill-68" fill="#FFFFFF" points="15.8759127 16.2591574 18.6113078 19.955046 20.1557898 22.015061 17.8819397 20.7740413 13.8053118 18.5982872 12.4333799 20.1466507 15.0876165 23.9311079 16.5876377 26.0465224 14.3624827 24.7536319 10.3811279 22.4649615 9.10305755 23.9085247 17.5266065 28.473868 17.5887104 28.50739 18.9948701 26.9184473 16.0844549 22.7483106 14.8356722 20.94765 16.7587763 21.9861262 21.251077 24.3707754 22.6487679 22.7927714 17.1014064 14.8752282"></polygon>
                    <polygon id="Fill-70" fill="#FFFFFF" points="26.4157937 17.5522597 25.162071 15.7731237 28.2954957 13.5649062 27.3021859 12.1569822 24.1691141 14.3648469 22.9834939 12.6831012 26.5272985 10.1855358 25.5343416 8.77761187 20.4206489 12.3824618 25.8381568 20.067821 30.9522023 16.4626183 29.9592454 15.0539886"></polygon>
                    <polygon id="Fill-72" fill="#FFFFFF" points="34.5635449 4.32419669 37.1242727 10.2325372 35.7032928 9.03386108 31.2353397 5.76634836 29.3492862 6.58357941 33.0871655 15.209319 34.7646769 14.4817152 32.2050076 8.57443327 33.6206946 9.76887501 38.0935878 13.0402692 39.9792884 12.2226853 36.2414091 3.59659289"></polygon>
                    <polygon id="Fill-74" fill="#FFFFFF" points="47.000771 0.954600665 39.9985548 2.42427566 40.3528294 4.11025577 42.9139101 3.57249234 44.4915612 11.0874187 46.371616 10.6929177 44.793612 3.1783442 47.3553985 2.64022791"></polygon>
                    <g id="Group-78" transform="translate(50.106567, 0.092097)">
                        <mask id="mask-8" fill="white">
                            <use xlink:href="#path-7"></use>
                        </mask>
                        <g id="Clip-77"></g>
                        <polyline id="Fill-76" fill="#FFFFFF" mask="url(#mask-8)" points="0.344253284 0.260660005 2.26876887 9.64928969 2.2828834 9.71809801 4.40464949 9.7727918 5.72506338 4.86093682 6.30058317 2.74516941 6.74307355 4.88704869 7.80730879 9.86100758 9.91566608 9.91605423 12.4082913 0.573649614 10.5596413 0.525307363 9.48976027 4.99855345 8.90612463 7.50564609 8.39341448 4.96750149 7.43680249 0.444854566 5.36831874 0.391572232 4.17775849 4.85881964 3.52284449 7.36732374 3.08176556 4.83270777 2.27159178 0.310766571"></polyline>
                    </g>
                    <path d="M70.0796791,2.37861517 C67.6008155,1.69123777 65.637485,3.03247058 64.8248412,5.96441045 C64.0121973,8.89670318 65.0062128,11.0576371 67.483665,11.7443088 C67.9109822,11.8628708 68.3234792,11.9210932 68.7172745,11.9210932 C70.6047395,11.9210932 72.0662986,10.5848005 72.73815,8.15886634 C73.5511467,5.22586789 72.5567784,3.06493399 70.0796791,2.37861517 L70.0796791,2.37861517 Z M70.5945064,8.30459882 C70.3954916,9.02267532 70.0419228,9.5657317 69.5715562,9.87589841 C69.1103641,10.1793607 68.5479002,10.2520505 67.9441514,10.0840877 C67.3400497,9.91683053 66.8947364,9.56537884 66.655848,9.06748894 C66.4120196,8.56007174 66.3883778,7.91221501 66.5870397,7.19413851 L66.9688376,5.81832511 C67.1674996,5.10024861 67.5214213,4.55719223 67.9917879,4.24737839 C68.290663,4.05048075 68.6325874,3.95097334 69.0002708,3.95097334 C69.1999913,3.95097334 69.407122,3.98026099 69.6191927,4.03883627 C70.2232944,4.20644626 70.6686077,4.55754509 70.9074961,5.05578785 C71.1513245,5.56320505 71.1749663,6.21106179 70.9759515,6.92878542 L70.5945064,8.30459882 Z" id="Fill-79" fill="#FFFFFF"></path>
                    <path d="M81.7837968,7.27148611 L78.0180413,5.2982754 L73.6548885,13.6265513 L75.3560417,14.5182365 L77.0063826,11.3689329 L78.3430282,12.0686606 L78.2145861,16.0157877 L80.1112255,17.0090974 L80.1803866,12.763801 C81.3307205,12.9095334 82.2972126,12.3495396 82.9080187,11.1829741 C83.7376,9.59932427 83.2965211,8.06366387 81.7837968,7.27148611 M81.2883769,9.99170809 L81.0067921,10.5301772 C80.720973,11.0764094 80.2502535,11.2136732 79.6814381,10.9151509 L77.7692728,9.91266675 L78.9323097,7.69245184 L80.8444751,8.69458317 C81.1250013,8.8417271 81.3067258,9.02733312 81.3840028,9.24716685 C81.4630442,9.47017636 81.4309336,9.72070919 81.2883769,9.99170809" id="Fill-81" fill="#FFFFFF"></path>
                    <polygon id="Fill-83" fill="#FFFFFF" points="91.5188675 16.1475115 92.5894543 14.79781 87.054443 10.4071339 86.9852818 10.3520872 85.9143422 11.7014359 87.9641242 13.3274293 83.2477554 19.2728204 83.1927087 19.3416287 84.69767 20.5360704 89.4687326 14.5215181"></polygon>
                    <polygon id="Fill-85" fill="#FFFFFF" points="99.0235961 21.7914164 96.1347056 24.2293478 93.7680525 21.4247916 96.6565902 18.9868601 95.4176877 17.5185965 88.2319826 23.5836083 89.4715908 25.0511661 92.4508143 22.5363105 94.8181732 25.3408667 91.8378911 27.8553695 93.0771464 29.3239859 100.262851 23.2596799"></polygon>
                </g>
            </g>
        </g>
    </g>
</svg>